# xmcd
#
# Track frame offsets:
#	150
#	16947
#	33060
#	52987
#	66985
#	86872
#	107000
#	129290
#	149062
#	165627
# Disc length: 2501 seconds
# Revision: 1
# Processed by: cddbd v1.5.1PL2 Copyright (c) Steve Scherf et al.
#
# Submitted via: libkcddb 0.3
#
DISCID=8209c30a
DTITLE=Alice Texas - Gold
DYEAR=1999
DGENRE=Indie
TTITLE0=Poison
TTITLE1=Forsake
TTITLE2=My Love
TTITLE3=Big Black Motorcycle
TTITLE4=One More Time
TTITLE5=Dream Time
TTITLE6=Chase The Rabbit
TTITLE7=Guardian Angel
TTITLE8=Lullaby (for Olive, June and Joy)
TTITLE9=Gold
EXTD=
EXTT0=
EXTT1=
EXTT2=
EXTT3=
EXTT4=
EXTT5=
EXTT6=
EXTT7=
EXTT8=
EXTT9=
PLAYORDER=
